<?xml version="1.0" encoding="UTF-8" standalone="no"?>
<!DOCTYPE svg PUBLIC "-//W3C//DTD SVG 1.1//EN" "http://www.w3.org/Graphics/SVG/1.1/DTD/svg11.dtd">
<svg width="100%" height="100%" viewBox="0 0 237 357" version="1.1" xmlns="http://www.w3.org/2000/svg" xmlns:xlink="http://www.w3.org/1999/xlink" xml:space="preserve" xmlns:serif="http://www.serif.com/" style="fill-rule:evenodd;clip-rule:evenodd;stroke-linejoin:round;stroke-miterlimit:2;">
    <g transform="matrix(1,0,0,1,-430.997,0)">
        <g id="icon-final" serif:id="icon final" transform="matrix(0.443914,0,0,0.710557,-469.013,-1950.48)">
            <rect x="2027.44" y="2745" width="532.131" height="501.99" style="fill:none;"/>
            <clipPath id="_clip1">
                <rect x="2027.44" y="2745" width="532.131" height="501.99"/>
            </clipPath>
            <g clip-path="url(#_clip1)">
                <g transform="matrix(2.56208,0,0,1.6444,-3666.9,-2003.52)">
                    <path d="M2282.63,3094.77C2275.55,3094.77 2269.8,3089.18 2269.8,3082.29L2269.8,3082.29C2269.8,3076.93 2267.24,3071.88 2262.86,3068.63C2238.32,3050.18 2222.55,3021.25 2222.55,2988.76C2222.55,2932.97 2269.08,2887.68 2326.39,2887.68C2383.71,2887.68 2430.24,2932.97 2430.24,2988.76C2430.24,3021.25 2414.46,3050.18 2389.96,3068.68C2385.61,3071.92 2383.05,3076.95 2383.05,3082.29L2383.05,3082.33C2383.02,3089.21 2377.28,3094.77 2370.21,3094.77L2282.63,3094.77ZM2369.68,2944.79C2361.09,2944.79 2354.11,2951.59 2354.11,2959.95C2354.11,2968.32 2361.09,2975.12 2369.68,2975.12C2378.28,2975.12 2385.26,2968.32 2385.26,2959.95C2385.26,2951.59 2378.28,2944.79 2369.68,2944.79ZM2283.1,2944.79C2274.5,2944.79 2267.52,2951.59 2267.52,2959.95C2267.52,2968.32 2274.5,2975.12 2283.1,2975.12C2291.7,2975.12 2298.68,2968.32 2298.68,2959.95C2298.68,2951.59 2291.7,2944.79 2283.1,2944.79ZM2352.59,3006.41L2329.58,3044.65C2328.97,3045.67 2327.74,3046.32 2326.39,3046.32C2325.05,3046.32 2323.82,3045.67 2323.2,3044.65L2300.2,3006.41L2293.64,3006.41C2292.39,3006.41 2291.22,3006.97 2290.57,3007.9C2289.92,3008.82 2289.87,3009.97 2290.45,3010.93L2323.2,3065.38C2323.82,3066.41 2325.05,3067.06 2326.39,3067.06C2327.74,3067.06 2328.97,3066.41 2329.58,3065.38L2362.34,3010.93C2362.91,3009.97 2362.87,3008.82 2362.22,3007.9C2361.56,3006.97 2360.4,3006.41 2359.14,3006.41L2352.59,3006.41Z" style="fill:rgb(255,225,90);"/>
                </g>
                <g transform="matrix(2.43319,0,0,1.56082,-3028.85,-1862.76)">
                    <path d="M2247.03,3189.55L2247.03,3218.37C2247.03,3226.33 2240.39,3232.79 2232.23,3232.79L2142.58,3232.79C2134.41,3232.79 2127.78,3226.33 2127.78,3218.37L2127.78,3189.55C2127.78,3181.6 2134.41,3175.14 2142.58,3175.14L2232.23,3175.14C2240.39,3175.14 2247.03,3181.6 2247.03,3189.55ZM2188.79,3219.74L2193.11,3219.74L2193.11,3202.72L2192.62,3194.34L2192.77,3194.34L2199.79,3209.39L2202.98,3209.39L2210.01,3194.34L2210.16,3194.34L2209.66,3202.72L2209.66,3219.74L2213.99,3219.74L2213.99,3187.46L2209.57,3187.46L2203.55,3199.77L2201.46,3204.75L2201.31,3204.75L2199.23,3199.77L2193.21,3187.46L2188.79,3187.46L2188.79,3219.74ZM2172.02,3220.46C2174.15,3220.46 2175.97,3220.04 2177.48,3219.19C2179,3218.34 2180.16,3217.11 2180.97,3215.5C2181.78,3213.89 2182.18,3211.97 2182.18,3209.73L2182.18,3187.46L2177.62,3187.46L2177.62,3209.64C2177.62,3211.91 2177.14,3213.62 2176.18,3214.77C2175.22,3215.92 2173.8,3216.49 2171.92,3216.49C2168.43,3216.49 2166.15,3214.7 2165.07,3211.11L2160.82,3212.55C2161.61,3215.05 2162.98,3216.99 2164.93,3218.38C2166.89,3219.77 2169.25,3220.46 2172.02,3220.46Z" style="fill:rgb(255,225,90);"/>
                </g>
                <g transform="matrix(-4.15225,-3.17683e-16,1.76976e-16,-0.902826,11179.4,6110.89)">
                    <path d="M2136.52,3174.94C2138.64,3170.96 2141.39,3170.96 2143.51,3174.94C2146.73,3180.97 2151.77,3190.4 2156.88,3199.95C2159.25,3204.4 2160.33,3212.81 2159.52,3220.62C2158.72,3228.43 2156.22,3233.79 2153.38,3233.79C2144.89,3233.79 2135.15,3233.79 2126.65,3233.79C2123.82,3233.79 2121.32,3228.43 2120.51,3220.62C2119.7,3212.81 2120.78,3204.4 2123.16,3199.95C2128.26,3190.4 2133.3,3180.97 2136.52,3174.94Z" style="fill:rgb(255,225,90);"/>
                </g>
            </g>
        </g>
    </g>
</svg>
